<svg width="100" height="100" xmlns="http://www.w3.org/2000/svg">
  <title>Boat</title>
  <g id="group-color"
     stroke="none" stroke-width="none">
    <!-- 43.3 -->
    <path id="element-color-1"
          d="M50,50 m0,-50 a50,50,1,0,0,-43.3,25 L50,50 z"
          fill="LimeGreen"
    />
    <path id="element-color-2"
          d="M50,50 m-43.5,-25 a50,50,1,0,0,0,50 L50,50 z"
          fill="RoyalBlue"
    />
    <path id="element-color-3"
          d="M50,50 m-43.5,25 a50,50,1,0,0,43.5,25 L50,50 z"
          fill="BlueViolet"
    />
    <path id="element-color-4"
          d="M50,50 m0,50 a50,50,1,0,0,43.5,-25 L50,50 z"
          fill="Violet"
    />
    <path id="element-color-5"
          d="M50,50 m43.5,25 a50,50,1,0,0,0,-50 L50,50 z"
          fill="Crimson"
    />
    <path id="element-color-6"
          d="M50,50 m43.5,-25 a50,50,1,0,0,-43.5,-25 L50,50 z"
          fill="Orange"
    />
    <circle
      cx="50" cy="50" r="35"
      fill="SkyBlue"
    />
    <path id="element-boat"
          d="M50,50 m-32,8 l64,0 l-16,16 l-32,0 z"
          fill="BurlyWood"
    />
    <path id="element-sail"
          d="M50,50 m-8,-32 l24,40 l-24,0 z"
          fill="GhostWhite"
    />
  </g>
  <g id="group-text"
     font-family="Helvetica, Arial, sans-serif" font-weight="bold">
    <text id="element-boat"
          x="50" y="71" text-anchor="middle" font-size="14"
          fill="SaddleBrown">
      Boat
    </text>
    <text id="element-jvm"
          x="43" y="57" text-anchor="end" font-size="10"
          transform="rotate(90, 43, 57)"
          fill="SkyBlue">
      JVM
    </text>
  </g>
</svg>