<svg width="120" height="120" xmlns="http://www.w3.org/2000/svg">
  <title>Boat</title>
  <g id="group-background">
    <path id="background"
          d="M60,60 m-60,-60 l120,0 l0,120 l-120,0 l0,-120 z"
          fill="#3f3f3f"
    />
  </g>
  <g id="group-hive"
     fill="#fefefe" stroke="#3f3f3f" stroke-width="2"
     stroke-linecap="square" stroke-miterlimit="100"
  >
    <path id="hive-top"
          d="M60,60 m-10,-51 l20,0 l10,17 l-10,17 l-20,0 l-10,-17 l10,-17"
    />
    <path id="hive-right-top"
          d="M60,60 m20,-34 l20,0 l10,17 l-10,17 l-20,0 l-10,-17 l10,-17"
    />
    <path id="hive-right-bottom"
          d="M60,60 m20,0 l20,0 l10,17 l-10,17 l-20,0 l-10,-17 l10,-17"
    />
    <path id="hive-bottom"
          d="M60,60 m-10,17 l20,0 l10,17 l-10,17 l-20,0 l-10,-17 l10,-17"
    />
    <path id="hive-left-bottom"
          d="M60,60 m-40,0 l20,0 l10,17 l-10,17 l-20,0 l-10,-17 l10,-17"
    />
    <path id="hive-left-top"
          d="M60,60 m-40,-34 l20,0 l10,17 l-10,17 l-20,0 l-10,-17 l10,-17"
    />
  </g>
  <g id="group-color"
     fill="#fefefe" stroke="#3f3f3f" stroke-width="2"
     stroke-linecap="square" stroke-miterlimit="100"
  >
    <path id="color-top"
          d="M60,60 m-10,-51 l20,0 l10,17 l-10,17 l-20,0 l-10,-17 l10,-17"
          fill="#ec8b00" fill-opacity="0.382"
    />
    <path id="color-right-top"
          d="M60,60 m20,-34 l20,0 l10,17 l-10,17 l-20,0 l-10,-17 l10,-17"
          fill="#7f52ff" fill-opacity="0.382"
    />
    <path id="color-right-bottom"
          d="M60,60 m20,0 l20,0 l10,17 l-10,17 l-20,0 l-10,-17 l10,-17"
          fill="#ec8b00" fill-opacity="0.382"
    />
    <path id="color-bottom"
          d="M60,60 m-10,17 l20,0 l10,17 l-10,17 l-20,0 l-10,-17 l10,-17"
          fill="#7f52ff" fill-opacity="0.382"
    />
    <path id="color-left-bottom"
          d="M60,60 m-40,0 l20,0 l10,17 l-10,17 l-20,0 l-10,-17 l10,-17"
          fill="#ec8b00" fill-opacity="0.382"
    />
    <path id="color-left-top"
          d="M60,60 m-40,-34 l20,0 l10,17 l-10,17 l-20,0 l-10,-17 l10,-17"
          fill="#7f52ff" fill-opacity="0.382"
    />
  </g>
  <g id="group-title">
    <path id="text-background"
          d="M60,60 m-10,-17 l20,0 l10,17 l-10,17 l-20,0 l-10,-17 l10,-17"
          stroke-width="2" stroke-linecap="square" stroke-miterlimit="100"
          fill="#fefefe" stroke="#3f3f3f"
    />
    <path id="text-color"
          d="M60,60 m-10,-17 l20,0 l10,17 l-10,17 l-20,0 l-10,-17 l10,-17"
          stroke-width="2" stroke-linecap="square" stroke-miterlimit="100"
          fill="BurlyWood" stroke="#3f3f3f" fill-opacity="0.382"
    />
    <text id="text-boat" x="60" y="64" text-anchor="middle"
          font-family="Inter,Arial,sans-serif" font-size="12" font-weight="bold"
          fill="SaddleBrown"
    >
      Boat
    </text>
  </g>
</svg>